<?xml version="1.0" encoding="UTF-8" standalone="no"?>
<svg
   xmlns:dc="http://purl.org/dc/elements/1.1/"
   xmlns:cc="http://creativecommons.org/ns#"
   xmlns:rdf="http://www.w3.org/1999/02/22-rdf-syntax-ns#"
   xmlns:svg="http://www.w3.org/2000/svg"
   xmlns="http://www.w3.org/2000/svg"
   xmlns:sodipodi="http://sodipodi.sourceforge.net/DTD/sodipodi-0.dtd"
   xmlns:inkscape="http://www.inkscape.org/namespaces/inkscape"
   inkscape:version="1.0 (4035a4fb49, 2020-05-01)"
   sodipodi:docname="LogoSCSistemi.svg"
   viewBox="0 0 1799.9891 1012.5364"
   version="1.1"
   height="1080"
   width="1920"
   id="svg18841">
  <defs
     id="defs16" />
  <sodipodi:namedview
     inkscape:current-layer="svg18841"
     inkscape:window-maximized="1"
     inkscape:window-y="-8"
     inkscape:window-x="-8"
     inkscape:cy="487.50227"
     inkscape:cx="928.31468"
     inkscape:zoom="0.53543895"
     units="px"
     showgrid="false"
     id="namedview14"
     inkscape:window-height="1017"
     inkscape:window-width="1920"
     inkscape:pageshadow="2"
     inkscape:pageopacity="0"
     guidetolerance="10"
     gridtolerance="10"
     objecttolerance="10"
     borderopacity="1"
     bordercolor="#666666"
     pagecolor="#ffffff" />
  <metadata
     id="metadata18846">
    <rdf:RDF>
      <cc:Work
         rdf:about="">
        <dc:format>image/svg+xml</dc:format>
        <dc:type
           rdf:resource="http://purl.org/dc/dcmitype/StillImage" />
        <dc:title></dc:title>
      </cc:Work>
    </rdf:RDF>
  </metadata>
  <g
     transform="matrix(4.0578711,0,0,4.0578711,3.5564334,6.4179184)"
     id="layer1">
    <g
       transform="translate(-138.12,-318.12)"
       id="g24028">
      <path
         fill="#b4abff"
         d="m 289.86,320.03 c -7.8695,8e-5 -14.32,1.8556 -19.576,5.7012 -5.2562,3.8457 -7.9824,8.9986 -7.9824,15.205 0,4.6029 1.1946,8.3437 3.4219,11.402 2.2272,3.0587 5.8841,5.6006 11.021,7.4121 2.2272,0.77208 4.6539,1.3659 7.2227,1.9004 2.5687,0.53451 4.9657,1.117 7.2227,1.7109 1.8114,0.47517 3.4453,1.2419 4.752,2.2812 1.3066,1.0394 1.9003,2.3273 1.9004,3.9902 -6e-5,1.4848 -0.33891,2.7056 -1.1406,3.6113 -0.80184,0.9057 -1.8829,1.5869 -3.041,2.0918 -0.95031,0.44542 -2.2418,0.74133 -3.8008,0.94922 -1.5591,0.20788 -2.6611,0.38086 -3.6113,0.38086 -3.7714,0 -7.7742,-0.76679 -11.783,-2.2812 -4.0089,-1.5145 -7.6975,-3.6398 -11.023,-6.4609 h -3.041 c -0.83152,0.74242 -1.7231,1.5204 -2.8516,2.4707 -1.1285,0.9503 -2.5055,1.9291 -3.9902,2.8496 -1.366,0.89086 -2.9518,1.7432 -4.9414,2.4707 -1.9897,0.72756 -4.074,0.95117 -6.2715,0.95117 -2.1084,0 -4.3397,-0.39821 -6.4629,-1.1406 -2.1233,-0.74239 -3.9788,-1.9483 -5.7012,-3.6113 -1.7818,-1.7223 -3.2723,-3.8461 -4.3711,-6.6524 -1.0987,-2.8062 -1.7109,-6.3254 -1.7109,-10.453 0,-3.9199 0.65671,-7.3812 1.7109,-10.262 1.0542,-2.8805 2.3272,-5.1491 3.9902,-6.8418 1.8114,-1.8708 3.6986,-3.0435 5.7031,-3.8008 2.0044,-0.75718 4.2449,-1.1406 6.6504,-1.1406 2.0193,7e-5 4.0365,0.2811 5.8926,0.94922 1.856,0.66821 3.5866,1.5204 5.1309,2.4707 1.5441,0.95035 2.7746,1.8568 3.9922,2.8516 1.2174,0.99487 2.2391,1.758 3.041,2.4707 h 1.709 v -15.775 c -1.0988,-0.56419 -2.5894,-1.1282 -4.3711,-1.9004 -1.7818,-0.772 -3.427,-1.4549 -4.9414,-1.9004 -1.9303,-0.53446 -3.7822,-1.033 -5.8906,-1.3301 -2.1084,-0.2969 -4.5798,-0.38082 -7.2227,-0.38086 -9.9482,4e-5 -17.893,3.0615 -23.758,9.3125 -5.8649,6.2511 -8.7422,14.765 -8.7422,25.277 0,10.898 2.8921,19.264 8.7422,25.277 5.8501,6.0134 13.81,9.123 23.758,9.123 3.1774,0 5.6006,-0.24366 7.4121,-0.57031 1.8114,-0.32665 3.8138,-0.70653 5.8926,-1.3301 1.6927,-0.50485 3.3377,-1.1729 4.9414,-1.9004 1.6036,-0.72757 2.9621,-1.3362 4.1797,-1.9004 3.0994,1.8638 7.2342,2.7302 10.834,3.8008 3.8456,0.97996 8.2266,1.5215 13.305,1.5215 8.8197,0 15.914,-2.073 21.096,-6.082 5.1819,-4.009 7.6016,-9.3723 7.6016,-15.965 0,-4.6028 -0.98848,-8.2171 -3.2305,-11.023 -2.242,-2.8062 -5.6608,-5.1788 -10.264,-6.8418 -2.346,-0.83144 -4.5885,-1.4252 -6.6523,-1.9004 -2.0639,-0.4751 -4.2338,-1.0166 -6.4609,-1.5215 -3.4448,-0.80178 -5.8286,-1.6653 -7.0312,-2.6602 -1.2028,-0.99479 -1.7109,-2.2976 -1.7109,-3.9902 0,-1.1581 0.38334,-2.1056 1.1406,-3.041 0.75722,-0.93536 1.6208,-1.8061 2.6602,-2.2812 1.2769,-0.5939 2.4532,-0.93267 3.6113,-1.1406 1.1581,-0.20781 2.5351,-0.38079 3.9902,-0.38086 3.7417,7e-5 7.2853,0.82619 10.834,2.2812 3.5487,1.4551 6.6582,3.2139 9.123,5.3223 h 1.5195 v -15.205 c -3.0884,-1.366 -6.7376,-2.4286 -10.643,-3.2305 -3.905,-0.80175 -7.8337,-1.1406 -11.783,-1.1406 z m -106.78,0.44922 c -7.8695,4e-5 -14.433,1.922 -19.689,5.7676 -5.2562,3.8457 -7.8848,8.8717 -7.8848,15.078 0,4.6029 1.1146,8.4336 3.3418,11.492 2.2272,3.0587 5.9095,5.4932 11.047,7.3047 2.2272,0.77215 4.6246,1.4265 7.1934,1.9609 2.5687,0.53458 4.9814,1.0995 7.2383,1.6934 1.8114,0.47517 3.3711,1.2321 4.6777,2.2715 1.3066,1.0394 1.959,2.3898 1.959,4.0527 0,1.4848 -0.39945,2.6802 -1.2012,3.5859 -0.8019,0.90576 -1.7833,1.6104 -2.9414,2.1152 -0.95025,0.44545 -2.2047,0.77261 -3.7637,0.98047 -1.5591,0.20788 -2.8134,0.3125 -3.7637,0.3125 -3.7714,0 -7.661,-0.757 -11.67,-2.2715 -4.009,-1.5145 -7.676,-3.6828 -11.002,-6.5039 h -1.5156 v 15.768 c 3.2962,1.4551 6.8672,2.6743 10.713,3.6543 3.8456,0.97996 8.3087,1.4688 13.387,1.4688 8.8197,0 15.82,-2.0047 21.002,-6.0137 5.1819,-4.009 7.7734,-9.3098 7.7734,-15.902 -6e-5,-4.6028 -1.1213,-8.307 -3.3633,-11.113 -2.2421,-2.8062 -5.6647,-5.0401 -10.268,-6.7031 -2.346,-0.83144 -4.5514,-1.4858 -6.6152,-1.9609 -2.064,-0.47513 -4.2103,-0.9639 -6.4375,-1.4688 -3.4448,-0.80175 -5.768,-1.7004 -6.9707,-2.6953 -1.2027,-0.99479 -1.8027,-2.3386 -1.8027,-4.0312 0,-1.1582 0.37747,-2.2052 1.1348,-3.1406 0.75722,-0.93539 1.656,-1.6401 2.6953,-2.1152 1.2769,-0.59388 2.4941,-0.99527 3.6523,-1.2031 1.1581,-0.20782 2.4648,-0.31245 3.9199,-0.3125 3.7417,5e-5 7.3868,0.72854 10.936,2.1836 3.5487,1.4552 6.5547,3.2373 9.0195,5.3457 h 1.4707 v -15.146 c -3.0884,-1.366 -6.5852,-2.4501 -10.49,-3.252 -3.905,-0.80169 -7.8317,-1.2011 -11.781,-1.2012 z"
         id="path24030" />
      <path
         fill="#99ccff"
         d="m 385.48,322.21 v 14.297 h -5.9688 v 10.869 h 5.9688 v 23.387 c 0,5.9392 1.4484,10.215 4.3438,12.828 2.8954,2.6133 7.52,3.9199 13.875,3.9199 2.7617,0 5.0935,-0.12652 6.9941,-0.37891 1.9005,-0.25244 3.696,-0.60145 5.3887,-1.0469 v -11.002 h -1.3359 c -0.53457,0.29697 -1.477,0.62413 -2.8281,0.98047 -1.3512,0.3564 -2.4419,0.53321 -3.2734,0.53321 -2.0193,0 -3.5572,-0.3034 -4.6113,-0.91211 -1.0542,-0.60879 -1.7894,-1.4333 -2.2051,-2.4727 -0.44548,-1.0393 -0.68289,-2.2128 -0.71289,-3.5195 -0.0294,-1.3066 -0.043,-2.8358 -0.043,-4.5879 v -17.729 h 15.01 v -10.869 h -15.01 v -14.297 h -15.592 z m -25.006,12.596 c -3.6823,7e-5 -6.9871,0.4451 -9.9121,1.3359 -2.925,0.89094 -5.3815,2.0949 -7.3711,3.6094 -1.9897,1.5442 -3.4969,3.3026 -4.5215,5.2774 -1.0245,1.9748 -1.5371,4.0756 -1.5371,6.3027 0,3.8902 0.9881,7.0314 2.9629,9.4219 1.9747,2.3906 4.9219,4.1946 8.8418,5.4121 1.3957,0.44549 2.999,0.83821 4.8105,1.1797 1.8114,0.34156 3.3102,0.66209 4.498,0.95899 2.2272,0.53459 3.7279,1.0975 4.5,1.6914 0.77203,0.59394 1.1581,1.4708 1.1582,2.6289 -1.2e-4,1.4848 -0.83978,2.569 -2.5176,3.252 -1.6779,0.68306 -3.6151,1.0234 -5.8125,1.0234 -2.1382,0 -4.121,-0.24442 -5.9473,-0.73437 -1.8263,-0.49001 -3.4667,-1.0767 -4.9219,-1.7598 -1.6926,-0.74239 -3.0145,-1.4537 -3.9648,-2.1367 -0.95025,-0.68299 -1.7967,-1.3068 -2.5391,-1.8711 h -1.291 v 13.184 c 2.1381,1.0691 4.8474,2.0049 8.1289,2.8066 3.2814,0.80183 6.763,1.2031 10.445,1.2031 4.0386,0 7.507,-0.42986 10.402,-1.291 2.8954,-0.86119 5.4107,-2.0804 7.5488,-3.6543 2.0193,-1.4551 3.5789,-3.2439 4.6777,-5.3672 1.0987,-2.1233 1.6484,-4.3571 1.6484,-6.7031 -6e-5,-3.712 -0.9272,-6.6896 -2.7832,-8.9316 -1.856,-2.242 -4.5807,-3.9414 -8.1738,-5.0996 -1.6037,-0.53446 -3.2745,-0.95768 -5.0117,-1.2695 -1.7372,-0.31177 -3.275,-0.63226 -4.6113,-0.95898 -2.5836,-0.62355 -4.2611,-1.2607 -5.0332,-1.9141 -0.77209,-0.65324 -1.1582,-1.5453 -1.1582,-2.6738 0,-1.2769 0.78072,-2.3001 2.3398,-3.0723 1.559,-0.77201 3.4657,-1.1582 5.7227,-1.1582 1.6927,5e-5 3.3484,0.19211 4.9668,0.57812 1.6184,0.38606 3.082,0.87682 4.3887,1.4707 1.0987,0.5049 2.2265,1.1069 3.3848,1.8047 1.1581,0.69787 2.0045,1.2542 2.5391,1.6699 h 1.248 v -12.65 c -2.0194,-0.97996 -4.4995,-1.8196 -7.4394,-2.5176 -2.9399,-0.69783 -6.1619,-1.0468 -9.666,-1.0469 z m 83.896,0.0605 c -8.4337,4e-5 -14.884,2.3506 -19.576,7.2207 -4.6919,4.8702 -7.0312,11.41 -7.0312,19.576 0,8.3446 2.3786,14.871 7.4121,19.385 5.0335,4.5138 12.414,6.6523 21.857,6.6523 2.5835,0 4.6643,-0.1265 6.4609,-0.3789 1.7966,-0.25238 3.6295,-0.50574 5.3223,-0.95118 1.8411,-0.44543 3.3169,-0.89946 4.3711,-1.3301 1.0542,-0.43057 2.1429,-0.82523 3.4199,-1.3301 v -12.924 h -1.709 c -0.68311,0.50486 -1.5782,1.0576 -2.6621,1.7109 -1.084,0.65335 -2.1431,1.3362 -3.4199,1.9004 -1.4551,0.65335 -3.1893,1.1187 -4.9414,1.5195 -1.7521,0.40093 -3.5109,0.57031 -5.3223,0.57031 -2.1085,0 -3.9195,-0.16938 -5.7012,-0.57031 -1.7818,-0.40083 -3.4157,-0.9798 -4.752,-1.9004 -1.3661,-0.92052 -2.399,-2.2417 -3.2305,-3.8008 -0.83146,-1.559 -1.373,-3.5763 -1.5215,-5.8926 h 34.211 v -5.5117 c -6e-5,-7.6912 -2.0322,-13.546 -5.8926,-17.674 -3.8605,-4.1277 -9.6334,-6.2714 -17.295,-6.2715 z m 56.266,1.2402 c -2.8211,5e-5 -5.3603,0.60872 -7.6172,1.8262 -2.2569,1.2176 -4.663,2.9104 -7.2168,5.0781 v -5.5234 h -15.59 v 50.023 h 15.59 v -35.457 c 1.1581,-0.80178 2.3469,-1.4998 3.5644,-2.0938 1.2175,-0.59387 2.4652,-0.89056 3.7422,-0.89063 1.6629,7e-5 2.961,0.24444 3.8965,0.73438 0.93549,0.49002 1.6268,1.2708 2.0723,2.3398 0.44547,1.0691 0.72025,2.4566 0.82422,4.1641 0.10371,1.7075 0.1543,3.7778 0.1543,6.2129 v 24.99 h 15.68 v -35.457 c 1.366,-0.95023 2.6289,-1.6854 3.7871,-2.2051 1.1581,-0.5197 2.3316,-0.77923 3.5195,-0.7793 1.6926,7e-5 3.0059,0.24444 3.9414,0.73438 0.93536,0.49002 1.6268,1.2708 2.0723,2.3398 0.44537,1.0691 0.71158,2.45 0.80078,4.1426 0.089,1.6927 0.13468,3.7696 0.13476,6.2344 v 24.99 h 15.678 v -32.562 c -1.1e-4,-3.5635 -0.34912,-6.4516 -1.0469,-8.6641 -0.69794,-2.2123 -1.743,-4.119 -3.1387,-5.7227 -1.277,-1.4847 -2.8367,-2.5993 -4.6777,-3.3418 -1.8412,-0.74235 -3.9201,-1.1132 -6.2363,-1.1133 -2.7321,5e-5 -5.4263,0.75043 -8.084,2.25 -2.6579,1.4997 -5.4871,3.6442 -8.4863,6.4356 -1.2176,-2.8804 -2.9845,-5.0468 -5.3008,-6.502 -2.3164,-1.455 -5.0038,-2.1836 -8.0625,-2.1836 z m -182.91,1.3809 v 50.023 h 15.59 v -50.023 z m 231.55,0 v 50.023 h 15.592 v -50.023 z m -106.04,7.4512 c 2.9695,5e-5 5.2121,0.74843 6.6523,2.4707 1.4402,1.7224 2.1921,4.3054 2.2812,7.6016 h -18.816 c 0.17815,-3.118 1.144,-5.6006 2.8516,-7.4121 1.7075,-1.8114 4.0022,-2.6601 7.0312,-2.6602 z"
         id="path24032" />
      <g
         id="g9">
        <path
           fill="#de646c"
           d="M 333.76,335.81 H 317.279 V 323.649 H 333.76 Z"
           id="path24034" />
        <path
           fill="#de646c"
           d="M 565.31,335.81 H 548.829 V 323.649 H 565.31 Z"
           id="path24036" />
        <path
           fill="#99ccff"
           d="m 171.5,395.65 c -9.4504,-0.002 -15.805,5.2251 -15.84,13.877 h -15.84 v 4.627 h 22.176 v -4.627 c 0.0271,-6.6962 3.1058,-9.2515 9.5039,-9.25 6.3981,-10e-4 9.4748,4.8664 9.502,11.562 0.035,8.6519 6.3894,16.191 15.84,16.189 9.4504,0.002 15.805,-7.5376 15.84,-16.189 0.0271,-6.6962 3.1058,-11.564 9.5039,-11.562 6.3981,-10e-4 9.4768,4.8664 9.5039,11.562 0.035,8.6519 6.3894,16.191 15.84,16.189 9.4504,0.002 15.803,-7.5376 15.838,-16.189 0.0271,-6.6962 3.1058,-11.564 9.5039,-11.562 6.3981,-10e-4 9.4768,4.8664 9.5039,11.562 0.035,8.6519 6.3894,16.191 15.84,16.189 9.4504,0.002 15.805,-7.5376 15.84,-16.189 0.0271,-6.6962 3.1058,-11.564 9.5039,-11.562 6.3981,-10e-4 9.4768,4.8664 9.5039,11.562 0.035,8.6519 6.3894,16.191 15.84,16.189 9.4504,0.002 15.803,-7.5376 15.838,-16.189 h -6.3359 c -0.0271,6.6962 -3.1039,11.565 -9.502,11.564 -6.3981,10e-4 -9.4768,-4.8683 -9.5039,-11.564 -0.035,-8.6519 -6.3894,-16.192 -15.84,-16.189 -9.4504,-0.002 -15.805,7.5376 -15.84,16.189 -0.0271,6.6962 -3.1058,11.565 -9.5039,11.564 -6.3981,10e-4 -9.4768,-4.8683 -9.5039,-11.564 -0.035,-8.6519 -6.3894,-16.192 -15.84,-16.189 -9.4504,-0.002 -15.803,7.5376 -15.838,16.189 -0.0271,6.6962 -3.1058,11.565 -9.5039,11.564 -6.3981,10e-4 -9.4768,-4.8683 -9.5039,-11.564 -0.035,-8.6519 -6.3894,-16.192 -15.84,-16.189 -9.4504,-0.002 -15.805,7.5376 -15.84,16.189 -0.0271,6.6962 -3.1058,11.565 -9.5039,11.564 -6.3981,10e-4 -9.4768,-4.8683 -9.5039,-11.564 -0.035,-8.6519 -6.3874,-16.192 -15.838,-16.189 z"
           id="path24038" />
        <path
           fill="#50ccff"
           d="m 358.4,395.65 v 16.189 h 6.3359 v -11.562 h 19.008 v 27.752 h 31.68 v -27.752 h 19.008 v 27.752 h 31.678 v -27.752 h 19.008 v 27.752 h 31.68 v -27.752 h 19.006 v 27.752 h 31.68 v -13.875 h 12.672 v -4.627 h -19.008 v 13.877 h -19.008 V 395.65 h -31.678 v 27.754 h -19.008 V 395.65 h -31.68 v 27.754 h -19.008 V 395.65 h -31.678 v 27.754 h -19.008 V 395.65 Z"
           id="path24040" />
      </g>
    </g>
  </g>
</svg>
